<svg width="30" height="30" fill="none" xmlns="http://www.w3.org/2000/svg"><path d="M22.59 10.163l-4.126-5.216a4.442 4.442 0 00-2.834-1.63V.627A.629.629 0 0015.003 0a.629.629 0 00-.627.627v2.69a4.36 4.36 0 00-2.827 1.63L7.41 10.169a2.613 2.613 0 00-.558 1.605v15.668A2.569 2.569 0 009.429 30h11.129a2.569 2.569 0 002.59-2.546v-15.68c0-.583-.201-1.147-.559-1.611zm-7.587-.734c1.01 0 1.825.816 1.825 1.825 0 1.01-.816 1.824-1.825 1.824a1.822 1.822 0 01-1.824-1.824c0-1.003.815-1.825 1.824-1.825zM21.9 27.442c0 .733-.602 1.304-1.336 1.304H9.442c-.734 0-1.335-.57-1.335-1.304V11.774c0-.3.1-.595.288-.827l4.132-5.223a3.144 3.144 0 011.85-1.135v3.65a3.078 3.078 0 00-2.39 3.642 3.078 3.078 0 003.643 2.389 3.078 3.078 0 002.389-3.643 3.084 3.084 0 00-2.389-2.389V4.59a3.126 3.126 0 011.843 1.135l4.138 5.216c.188.239.289.533.289.834v15.668z" fill="#1771B8"/><path d="M17.003 22.865a2.1 2.1 0 00-2-1.467.84.84 0 11.84-.84c0 .345.282.627.627.627a.629.629 0 00.627-.627 2.1 2.1 0 00-1.467-2v-.276a.629.629 0 00-.627-.627.629.629 0 00-.627.627v.276a2.098 2.098 0 00-1.373 2.627 2.1 2.1 0 002 1.467.84.84 0 11-.84.84.629.629 0 00-.627-.627.629.629 0 00-.627.627 2.1 2.1 0 001.467 2v.314c0 .344.282.627.627.627a.629.629 0 00.627-.627v-.314a2.098 2.098 0 001.373-2.627z" fill="#1771B8"/></svg>