<svg width="25" height="25" fill="none" xmlns="http://www.w3.org/2000/svg"><path d="M14.936 8.925L6.365.27a.914.914 0 00-1.478.28L.071 11.73a.924.924 0 00.114.91l9.2 11.973a.902.902 0 001.59-.3l2.622-9.079c.132-.454-.572-.657-.703-.203l-1.942 6.725.648-8.77 2.585-2.427-1.291 4.472c-.132.454.572.657.703.203l1.566-5.42a.982.982 0 00-.227-.889zM4.66 14.295l3.81 7.926-7.1-9.24 3.29 1.314zm5.402 9.548L5.466 14.28l5.378-1.014-.781 10.578zm1.306-11.646L6.613 1.562l7.75 7.826-2.994 2.81zM5.13 1.841L4.94 5.873c-.022.472.709.52.731.047l.197-4.228 4.852 10.85-.818.155-4.586.865.355-7.642c.022-.472-.71-.506-.732-.034l-.353 7.59-3.814-1.523L5.128 1.84zM24.805 8.881l-2.021-2.853a1.054 1.054 0 00-1.325-.34l-3.146 1.526c-.28.136-.485.387-.562.688l-3.206 12.484c-.07.274-.033.547.11.793l1.909 3.292c.292.503.962.675 1.46.375l1.5-.905c.405-.243.027-.87-.378-.627l-.669.403 1.28-1.88.916.557-1.527.92c-.405.244-.027.871.378.627.39-.235 2.114-1.223 2.237-1.702l3.206-12.484c.077-.301.018-.62-.162-.874zm-.7.278l-1.122.057-.274-2.026 1.395 1.97zm-4.719 11.737l-2.113-.543L20.107 9.32l2.112.543-2.833 11.034zm-2.145.206l1.813.465-1.552 2.282-.26-2.747zM22.23 9.108l-1.768-.454 1.443-1.95.325 2.404zm-2.48-.723l-.955-.59 2.171-1.053-1.216 1.643zm-1.37.015l1.042.643-2.88 11.22-1.222.054L18.38 8.4zm-2.955 12.646l1.072-.048.215 2.266-1.287-2.218zm5.692.76l-1.044-.636 2.881-11.22 1.223-.061-3.06 11.917z" fill="#000"/></svg>