<svg width="64" height="64" viewBox="0 0 64 64" fill="none" xmlns="http://www.w3.org/2000/svg">
<g clip-path="url(#clip0)">
<path d="M63.9998 10.9754C63.9998 10.9684 63.9989 10.9614 63.9987 10.9543C63.9979 10.9264 63.9963 10.8989 63.9931 10.8717C63.9918 10.8617 63.9899 10.8517 63.9884 10.8417C63.9847 10.8166 63.9801 10.7918 63.9743 10.7676C63.9721 10.7579 63.9696 10.7484 63.9669 10.7388C63.9597 10.7124 63.9514 10.6866 63.9419 10.6611C63.9402 10.6562 63.9391 10.6512 63.9372 10.6464L61.3941 4.13621C61.1377 3.48021 60.5168 3.05621 59.8124 3.05621H55.1819C54.6772 3.05621 54.2681 3.46534 54.2681 3.97009C54.2681 4.47484 54.6772 4.88396 55.1819 4.88396H59.7239L61.7478 10.0651H42.6136L41.4147 4.88396H57.4813C57.9861 4.88396 58.3952 4.47484 58.3952 3.97009C58.3952 3.46534 57.9861 3.05621 57.4813 3.05621H40.2652H31.0569H11.5095C10.805 3.05621 10.1843 3.48021 9.92791 4.13646L7.38479 10.6464C7.38291 10.6513 7.38191 10.6563 7.38004 10.6611C7.37054 10.6864 7.36229 10.7123 7.35504 10.7388C7.35241 10.7484 7.34991 10.7579 7.34766 10.7676C7.34191 10.7919 7.33729 10.8167 7.33354 10.8417C7.33204 10.8517 7.33016 10.8617 7.32891 10.8717C7.32579 10.8989 7.32404 10.9264 7.32329 10.9543C7.32316 10.9613 7.32229 10.9683 7.32216 10.9754L7.32204 10.9788V24.405C7.32204 24.9098 7.73116 25.3189 8.23591 25.3189C8.74066 25.3189 9.14979 24.9098 9.14979 24.405V11.8928H28.5212V25.7838C28.5212 26.327 28.8412 26.822 29.3366 27.0449C29.518 27.1265 29.7111 27.1664 29.903 27.1664C30.235 27.1664 30.5634 27.0472 30.8209 26.8189L35.661 22.5309L40.5011 26.8188C40.9075 27.1792 41.4902 27.2678 41.9856 27.0449C42.4809 26.8219 42.8008 26.327 42.8008 25.7838V11.8928H62.1722V52.8831C62.1722 53.5389 61.6386 54.0725 60.9828 54.0725H44.2262C44.2262 54.0621 44.225 54.0517 44.2248 54.0414C44.2238 53.9594 44.2208 53.8775 44.2138 53.7962C45.7872 54.2134 47.4683 53.4047 48.0988 51.8585C48.4305 51.0451 48.4256 50.1514 48.085 49.3419C48.0528 49.2656 48.0175 49.1916 47.9802 49.1188C47.9733 49.1054 47.9667 49.0919 47.9598 49.0786C47.9232 49.0091 47.8842 48.9413 47.8431 48.8751C47.8351 48.8623 47.8268 48.8498 47.8187 48.837C47.7752 48.7691 47.7301 48.7025 47.682 48.6384L47.6792 48.6349C47.6315 48.5715 47.581 48.5105 47.5288 48.4509C47.5193 48.44 47.51 48.429 47.5003 48.4181C47.4487 48.3606 47.3951 48.305 47.3396 48.2514C47.3287 48.2409 47.3177 48.2308 47.3067 48.2205C47.2486 48.1659 47.1891 48.1128 47.1271 48.0626C47.125 48.061 47.1228 48.0594 47.1207 48.0578C47.0597 48.0086 46.9963 47.9621 46.9317 47.9174C46.9201 47.9093 46.9086 47.901 46.8967 47.893C46.8321 47.8495 46.7658 47.8084 46.6978 47.7693C46.6922 47.766 46.6871 47.7623 46.6813 47.759C47.0676 47.4248 47.3725 47.0018 47.571 46.515C47.9026 45.7016 47.8977 44.8079 47.5571 43.9983C47.2591 43.2899 46.7352 42.7201 46.0642 42.3666C45.9683 42.3161 45.8695 42.27 45.7678 42.2286L31.5445 36.429L38.1652 34.3798C39.7404 33.8922 40.6275 32.2122 40.1427 30.635C39.9619 30.0463 39.6032 29.5498 39.14 29.1869C38.4506 28.6468 37.5292 28.4029 36.6155 28.5948C36.6111 28.5958 36.6069 28.5965 36.6025 28.5977C36.5519 28.609 31.4764 29.7503 26.1755 30.7839C25.9404 30.8298 25.7113 30.874 25.4854 30.9175C25.3046 30.9523 25.1264 30.9865 24.9515 31.0198C24.9013 31.0294 24.8509 31.0389 24.801 31.0484C24.4923 31.107 24.1931 31.1632 23.9024 31.2172C23.7854 31.2389 23.6694 31.2604 23.5553 31.2814C16.8981 32.5078 15.028 32.5298 14.509 32.4595C14.507 32.4593 14.5053 32.459 14.5033 32.4587C14.4954 32.4575 14.4876 32.4564 14.4804 32.4553C14.4752 32.4544 14.4703 32.4535 14.4654 32.4528C14.4619 32.4522 14.4581 32.4515 14.4548 32.451C14.4224 32.4452 14.3972 32.439 14.3777 32.4332L14.2279 32.3722L14.4145 31.9145C14.598 31.4645 14.5953 30.97 14.4069 30.5222C14.3598 30.4102 14.3024 30.3044 14.2359 30.2059C14.0364 29.9105 13.7543 29.6805 13.4168 29.5429L8.50829 27.5415C8.05841 27.3579 7.56379 27.3608 7.11591 27.5492C6.66791 27.7375 6.32029 28.0892 6.13679 28.539L0.134677 43.2594C-0.244072 44.1883 0.203552 45.252 1.13243 45.6309L6.04104 47.6324C6.26517 47.7238 6.49704 47.767 6.72541 47.767C7.44329 47.767 8.12504 47.3393 8.41241 46.6346L8.45754 46.524L9.58928 46.9854L9.59128 46.9863C10.6738 47.4276 11.6712 48.0574 12.5344 48.8389C12.6914 48.981 12.8439 49.1281 12.9918 49.28C13.1397 49.4319 13.2827 49.5886 13.4208 49.7499C13.4898 49.8305 13.5577 49.9124 13.624 49.9953C14.8819 51.5637 16.5309 52.7941 18.3925 53.5532L19.6658 54.0724H10.3393C9.68353 54.0724 9.14991 53.5387 9.14991 52.883V50.5706C9.14991 50.0659 8.74079 49.6567 8.23604 49.6567C7.73129 49.6567 7.32216 50.0659 7.32216 50.5706V52.883C7.32216 54.5466 8.67554 55.9001 10.3393 55.9001H24.1484L35.921 60.7004C36.3262 60.8656 36.7455 60.944 37.1584 60.9439C38.4557 60.9439 39.688 60.1707 40.2074 58.8971C40.4204 58.3747 40.4887 57.8287 40.4314 57.3039C41.0437 57.3917 41.6786 57.3111 42.2541 57.0626C42.839 56.81 43.3237 56.4076 43.668 55.9H60.9829C62.6466 55.9 64.0001 54.5466 64.0001 52.8829V10.9789L63.9998 10.9754ZM31.7834 4.88396H39.5386L40.7375 10.0651H30.5845L31.7834 4.88396ZM28.7085 10.0651H9.57416L11.598 4.88396H29.9074L28.7085 10.0651ZM40.9734 24.7952L36.578 20.9014C36.3166 20.6699 35.9889 20.5542 35.6612 20.5542C35.3335 20.5542 35.0056 20.6699 34.7442 20.9014L30.3491 24.7952V11.8928H40.9734V24.7952ZM6.72316 45.9366L1.8303 43.9416L7.82604 29.2373L12.7189 31.2324L6.72316 45.9366ZM43.2337 51.4517L42.1848 51.024L42.1833 51.0234L42.1822 51.0229L31.2586 46.5689C30.7914 46.3784 30.258 46.6026 30.0674 47.0701C29.8767 47.5375 30.1011 48.0709 30.5686 48.2615L41.4921 52.7155C41.5377 52.7341 41.5818 52.7547 41.6245 52.7774C41.6365 52.7837 41.6476 52.7915 41.6593 52.7981C41.6893 52.8151 41.7195 52.8321 41.7478 52.851C41.7615 52.8601 41.774 52.8706 41.7872 52.8801C41.8123 52.8981 41.838 52.9159 41.8617 52.9354C41.8761 52.9471 41.8891 52.9602 41.903 52.9725C41.9242 52.9914 41.946 53.0096 41.966 53.0296C41.9798 53.0434 41.9922 53.0585 42.0055 53.0727C42.0238 53.0925 42.0427 53.1119 42.06 53.1326C42.0731 53.1485 42.0846 53.1654 42.0971 53.1817C42.1127 53.2022 42.129 53.2224 42.1433 53.2436C42.1555 53.2614 42.1658 53.2801 42.1771 53.2982C42.1901 53.3192 42.2038 53.3399 42.2157 53.3615C42.2265 53.381 42.2355 53.4014 42.2453 53.4212C42.2559 53.4426 42.2672 53.4636 42.2767 53.4855C42.2858 53.5065 42.2932 53.5282 42.3013 53.5496C42.3096 53.5712 42.3186 53.5925 42.3258 53.6145C42.3331 53.6366 42.3386 53.6592 42.3447 53.6816C42.3508 53.7037 42.3577 53.7255 42.3629 53.7479C42.368 53.7705 42.3712 53.7935 42.3753 53.8162C42.3795 53.839 42.3842 53.8615 42.3872 53.8845C42.3902 53.9075 42.3913 53.9307 42.3932 53.9539C42.3951 53.9771 42.3978 54.0002 42.3986 54.0235C42.3993 54.0464 42.3982 54.0695 42.398 54.0925C42.3977 54.1162 42.3981 54.14 42.3966 54.1639C42.3952 54.1865 42.3918 54.2091 42.3893 54.2317C42.3867 54.2561 42.3847 54.2805 42.3807 54.3047C42.3771 54.327 42.3715 54.3491 42.3668 54.3714C42.3616 54.396 42.3572 54.4206 42.3506 54.4451C42.3448 54.4667 42.3371 54.4882 42.3302 54.5097C42.3225 54.5342 42.3153 54.5587 42.3062 54.5829C42.2985 54.5995 42.2908 54.6162 42.2837 54.6331C42.2821 54.637 42.2812 54.641 42.2797 54.6447C42.137 54.9744 41.8735 55.2362 41.5293 55.3849C41.1506 55.5482 40.717 55.554 40.3395 55.4L38.4041 54.6109C38.3951 54.6072 38.386 54.6047 38.377 54.6014C38.3679 54.5972 38.3592 54.5925 38.35 54.5887L29.4655 50.9661C28.9979 50.7756 28.4647 50.9999 28.2742 51.4674C28.0836 51.9347 28.308 52.4681 28.7754 52.6587L37.6599 56.2814C37.6694 56.2852 37.679 56.288 37.6886 56.2915C37.6972 56.2952 37.7052 56.2999 37.7141 56.3034C38.4597 56.6075 38.8191 57.4615 38.5151 58.2071C38.211 58.953 37.3574 59.3125 36.6114 59.0081L24.6745 54.1409L24.673 54.1401L19.083 51.8607C18.099 51.4595 17.1853 50.9026 16.3786 50.2175C15.8946 49.8064 15.4493 49.3493 15.0503 48.8518C14.6571 48.3616 14.2259 47.9045 13.7619 47.4844C12.741 46.5603 11.5617 45.8156 10.2818 45.2936L9.14816 44.8315L11.4053 39.2959L13.5383 34.0648L13.6957 34.1289C13.8438 34.1893 14.055 34.275 14.6235 34.2965C15.3338 34.3287 16.5088 34.2545 18.6138 33.9572C20.0456 33.7549 21.802 33.4624 23.8524 33.0852C23.9029 33.0759 23.953 33.0667 24.004 33.0573C24.0999 33.0395 24.1968 33.0215 24.294 33.0035C24.3696 32.9895 24.4456 32.9753 24.5223 32.9609C24.6095 32.9445 24.6971 32.9282 24.7854 32.9115C24.879 32.8939 24.9738 32.876 25.069 32.8579C25.1453 32.8434 25.2214 32.829 25.2984 32.8144C25.4145 32.7923 25.5326 32.7697 25.6511 32.7469C25.7121 32.7352 25.7725 32.7237 25.834 32.7119C26.0155 32.6769 26.1994 32.6414 26.3866 32.605C31.6692 31.5775 36.768 30.4339 36.9971 30.3824C37.02 30.3777 37.0429 30.3749 37.0657 30.3715C37.6527 30.2847 38.2279 30.6242 38.3962 31.1719C38.4554 31.3644 38.4622 31.5608 38.425 31.7455C38.3431 32.1522 38.0476 32.503 37.6252 32.6337L28.565 35.4379C28.1961 35.5522 27.9389 35.8855 27.9222 36.2713C27.9055 36.6569 28.1327 37.0115 28.4902 37.1573L45.0782 43.9211C45.4395 44.0684 45.7217 44.3475 45.873 44.7071C46.0242 45.0668 46.0265 45.4638 45.8791 45.8249C45.7317 46.1861 45.4527 46.4684 45.0931 46.6196C44.9133 46.6951 44.7242 46.7334 44.5348 46.7345C44.5321 46.7345 44.5293 46.7341 44.5266 46.7341C44.4821 46.7341 44.4377 46.7324 44.3933 46.7283C44.3802 46.727 44.3672 46.7243 44.3541 46.7228C44.3202 46.7186 44.2863 46.7148 44.2527 46.7083C44.2315 46.7041 44.2105 46.6979 44.1893 46.6929C44.1641 46.6869 44.1387 46.6818 44.1137 46.6744C44.0878 46.6668 44.0625 46.6566 44.037 46.6475C44.0167 46.6403 43.9961 46.6343 43.9761 46.6261L33.0516 42.1716C32.5842 41.981 32.051 42.2054 31.8604 42.6729C31.6697 43.1403 31.8941 43.6736 32.3616 43.8643L45.606 49.2646C45.6963 49.3014 45.7817 49.3465 45.8613 49.399C46.1002 49.5565 46.2873 49.7809 46.4007 50.0506C46.5331 50.3652 46.5513 50.7085 46.4551 51.0314C46.4413 51.0775 46.4252 51.1232 46.4068 51.1684C46.3878 51.215 46.3667 51.2601 46.3436 51.3036C46.2897 51.4049 46.2241 51.4964 46.1508 51.5797C46.1053 51.6315 46.0567 51.6797 46.005 51.724C45.9967 51.731 45.9892 51.739 45.9808 51.7457C45.6473 52.0185 45.2015 52.1357 44.7658 52.0477C44.6775 52.0299 44.5896 52.0045 44.5031 51.9692L43.2337 51.4517Z" fill="#1771B8"/>
</g>
<defs>
<clipPath id="clip0">
<rect width="64" height="64" fill="white"/>
</clipPath>
</defs>
</svg>
