<?xml version="1.0"?>
<svg xmlns="http://www.w3.org/2000/svg" id="Capa_1" enable-background="new 0 0 512.009 512.009" height="512" viewBox="0 0 512.009 512.009" width="512"><g><g><path d="m215.924 160.331c-4.142 0-7.5 3.358-7.5 7.5v8.016c0 4.142 3.358 7.5 7.5 7.5s7.5-3.358 7.5-7.5v-8.016c0-4.142-3.358-7.5-7.5-7.5z" data-original="#000000" class="active-path" style="fill:#FFED1C" data-old_color="#000000"/><path d="m296.085 183.347c4.142 0 7.5-3.358 7.5-7.5v-8.016c0-4.142-3.358-7.5-7.5-7.5s-7.5 3.358-7.5 7.5v8.016c0 4.143 3.358 7.5 7.5 7.5z" data-original="#000000" class="active-path" style="fill:#FFED1C" data-old_color="#000000"/><path d="m399.848 353.012-.069-.03v-64.909c0-12.976-10.557-23.532-23.533-23.532h-49.773c14.058-15.312 23.206-35.2 24.915-57.145h4.817c15.186 0 27.54-12.355 27.54-27.541 0-11.079-6.579-20.644-16.032-25.011v-86.727c0-19.6-12.303-37.465-30.615-44.453l-44.119-16.839c-23.843-9.1-50.105-9.1-73.948 0l-44.121 16.839c-18.312 6.989-30.615 24.853-30.615 44.453v86.727c-9.453 4.367-16.032 13.933-16.032 25.011 0 15.186 12.354 27.541 27.54 27.541h4.817c1.71 21.945 10.857 41.833 24.915 57.145h-49.773c-12.976 0-23.533 10.556-23.533 23.532v64.91l-.068.029c-14.567 6.243-23.98 20.517-23.98 36.366v115.131c0 4.142 3.358 7.5 7.5 7.5s7.5-3.358 7.5-7.5v-115.131c0-9.84 5.844-18.702 14.889-22.579l10.192-4.368v142.078c0 4.142 3.358 7.5 7.5 7.5s7.5-3.358 7.5-7.5v-148.506l17.064-7.313v155.82c0 4.142 3.358 7.5 7.5 7.5s7.5-3.358 7.5-7.5v-148.066l22.557 26.317c4.482 5.229 10.985 8.218 17.865 8.218h.166c6.941-.048 13.47-3.134 17.914-8.467l22.175-26.61 22.175 26.61c4.444 5.333 10.973 8.418 17.914 8.467h.166c6.88 0 13.384-2.989 17.865-8.218l22.557-26.317v148.064c0 4.142 3.358 7.5 7.5 7.5s7.5-3.358 7.5-7.5v-155.82l17.064 7.313v148.506c0 4.142 3.358 7.5 7.5 7.5s7.5-3.358 7.5-7.5v-142.076l10.193 4.368c9.044 3.876 14.888 12.739 14.888 22.579v115.131c0 4.142 3.358 7.5 7.5 7.5s7.5-3.358 7.5-7.5v-115.131c.002-15.848-9.41-30.123-23.977-36.366zm-55.666-200.697c-4.705 0-8.532-3.828-8.532-8.532v-8.532h17.064v17.064zm12.024 15c6.915 0 12.54 5.625 12.54 12.54s-5.625 12.541-12.54 12.541h-4.524v-25.081zm-196.911-99.198c0-13.421 8.424-25.654 20.963-30.439l44.121-16.839c20.394-7.784 42.857-7.784 63.251 0l44.121 16.839c12.539 4.785 20.963 17.018 20.963 30.439v28.653c-6.754-5.366-15.288-8.584-24.564-8.584h-144.29c-9.276 0-17.811 3.218-24.564 8.584v-28.653zm1.032 124.279h-4.524c-6.915 0-12.54-5.626-12.54-12.541s5.625-12.54 12.54-12.54h4.524zm7.5-40.081h-8.532v-17.064h17.064v8.532c0 4.705-3.827 8.532-8.532 8.532zm7.5 13.768c9.308-3.139 16.032-11.946 16.032-22.3v-8.532h88.69c4.142 0 7.5-3.358 7.5-7.5s-3.358-7.5-7.5-7.5h-119.584c3.177-9.889 12.463-17.064 23.394-17.064h144.29c10.931 0 20.217 7.176 23.394 17.064h-39.423c-4.142 0-7.5 3.358-7.5 7.5s3.358 7.5 7.5 7.5h8.529v8.532c0 10.354 6.724 19.16 16.032 22.3v26.313h-46.667c-4.42 0-8.576-1.721-11.702-4.847l-5.668-5.668c-4.444-4.445-10.354-6.893-16.64-6.893s-12.195 2.448-16.64 6.892l-5.668 5.668c-3.125 3.125-7.281 4.847-11.702 4.847h-46.667zm.346 41.313h46.322c8.427 0 16.35-3.282 22.308-9.24l5.668-5.668c1.612-1.612 3.754-2.499 6.033-2.499s4.421.887 6.033 2.499l5.668 5.668c5.958 5.959 13.881 9.24 22.308 9.24h46.322c-3.794 40.984-38.374 73.177-80.332 73.177s-76.536-32.193-80.33-73.177zm46.633 165.513c-1.635 1.962-3.941 3.052-6.495 3.07-2.584.02-4.875-1.041-6.538-2.979l-31.371-36.6 13.933-14.832c.156-.167.398-.211.603-.111l51.687 25.269zm-6.898-56.918v-9.881c0-4.142-3.358-7.5-7.5-7.5s-7.5 3.358-7.5 7.5v2.548l-1.382-.676c-6.152-3.008-13.435-1.676-18.124 3.316l-19.277 20.516-34.395 14.741v-58.481c0-4.705 3.828-8.532 8.533-8.532h67.286c15.174 10.123 33.387 16.032 52.956 16.032 14.506 0 28.266-3.251 40.597-9.053v29.471l-40.597 19.847zm87.328 57.009c-1.662 1.939-3.961 3.008-6.538 2.979-2.554-.018-4.86-1.108-6.495-3.07l-21.819-26.182 51.687-25.269c.204-.1.446-.056.603.11l13.933 14.832zm82.043-26.446-34.398-14.742-19.274-20.515c-4.689-4.991-11.972-6.323-18.124-3.316l-1.382.676v-29.116h64.645c4.705 0 8.533 3.828 8.533 8.532z" data-original="#000000" class="active-path" style="fill:#FFED1C" data-old_color="#000000"/><path d="m256.004 79.138c12.976 0 23.532-10.557 23.532-23.532 0-12.976-10.557-23.532-23.532-23.532s-23.532 10.557-23.532 23.532 10.557 23.532 23.532 23.532zm0-32.065c4.705 0 8.532 3.828 8.532 8.532 0 4.705-3.828 8.532-8.532 8.532s-8.532-3.828-8.532-8.532 3.828-8.532 8.532-8.532z" data-original="#000000" class="active-path" style="fill:#FFED1C" data-old_color="#000000"/><path d="m256.004 384.783c-4.142 0-7.5 3.358-7.5 7.5s3.358 7.5 7.5 7.5h.08c4.142 0 7.46-3.358 7.46-7.5s-3.398-7.5-7.54-7.5z" data-original="#000000" class="active-path" style="fill:#FFED1C" data-old_color="#000000"/><path d="m256.004 424.864c-4.142 0-7.5 3.358-7.5 7.5s3.358 7.5 7.5 7.5h.08c4.142 0 7.46-3.358 7.46-7.5s-3.398-7.5-7.54-7.5z" data-original="#000000" class="active-path" style="fill:#FFED1C" data-old_color="#000000"/></g></g> </svg>
