<?xml version="1.0"?>
<svg xmlns="http://www.w3.org/2000/svg" xmlns:xlink="http://www.w3.org/1999/xlink" xmlns:svgjs="http://svgjs.com/svgjs" version="1.1" width="512" height="512" x="0" y="0" viewBox="0 0 512 512" style="enable-background:new 0 0 512 512" xml:space="preserve" class=""><g><g xmlns="http://www.w3.org/2000/svg"><path d="m376.779 449.927c-11.481-4.847-27.824-8.959-47.262-11.89l-2.236 14.832c18.219 2.747 33.318 6.508 43.663 10.876 10.482 4.426 12.625 8.019 12.625 8.739 0 1.455-6.013 8.756-33.791 15.34-24.961 5.918-58.265 9.176-93.778 9.176s-68.817-3.258-93.778-9.175c-27.778-6.584-33.791-13.886-33.791-15.34 0-.713 2.115-4.274 12.466-8.672 10.232-4.347 25.184-8.101 43.236-10.854l-2.262-14.828c-45.414 6.927-68.44 18.486-68.44 34.354 0 12.914 14.828 22.706 45.331 29.936 26.061 6.177 60.594 9.579 97.238 9.579s71.177-3.402 97.238-9.58c30.503-7.23 45.331-17.022 45.331-29.936 0-8.862-7.331-16.452-21.79-22.557z" fill="#0b80c4" data-original="#000000" style="" class=""/><path d="m466.303 147.061c-9.356-2.506-23.792-7.189-39.434-15.264l-6.881 13.329c13.982 7.217 27.07 11.917 36.873 14.848v56.905l-81.907 85.479 10.83 10.378 86.077-89.83v-74.354z" fill="#0b80c4" data-original="#000000" style="" class=""/><path d="m248.5 398.531h-19.299l-81.777-85.344-10.83 10.378 32.056 33.454 30.797 86.917v32.434h15v-35.014l-20.546-57.983 28.898 30.158h25.701z" fill="#0b80c4" data-original="#000000" style="" class=""/><path d="m164.088 59.654c18.038 12.147 51.977 18.475 84.225 19.28l.375-14.995c-54.29-1.356-82.688-16.621-82.688-24.424 0-8.32 31.767-24.515 90-24.515s90 16.195 90 24.515c0 7.803-28.398 23.068-82.688 24.424l.375 14.995c32.247-.806 66.187-7.133 84.225-19.281 2.041 10.524 5.708 20.586 10.984 30.072l13.108-7.291c-7.302-13.127-11.004-27.567-11.004-42.919 0-25.942-52.821-39.515-105-39.515s-105 13.573-105 39.515c0 15.352-3.702 29.792-11.005 42.921l13.109 7.291c5.277-9.486 8.944-19.548 10.984-30.073z" fill="#0b80c4" data-original="#000000" style="" class=""/><path d="m137.046 302.357-81.907-85.479v-56.905c9.803-2.931 22.892-7.631 36.875-14.849l-6.881-13.328c-15.642 8.074-30.078 12.758-39.436 15.265l-5.559 1.489v74.354l86.077 89.83z" fill="#0b80c4" data-original="#000000" style="" class=""/><path d="m297.553 476.37h15v-32.434l30.797-86.916 32.057-33.455-10.83-10.378-81.778 85.344h-19.299v15h25.701l28.897-30.158-20.545 57.983z" fill="#0b80c4" data-original="#000000" style="" class=""/><path d="m119.222 143.243c-1.991 11.051 2.983 22.672 13.252 28.601 4.303 2.484 9.003 3.663 13.646 3.663 2.18 0 4.345-.272 6.451-.78 1.231 6.669 4.911 12.898 10.819 17.188 4.849 3.521 10.476 5.216 16.055 5.216 2.171 0 4.333-.261 6.441-.766 1.414 7.605 6.008 14.573 13.216 18.735 4.302 2.484 9.003 3.664 13.646 3.664 1.939 0 3.865-.217 5.75-.62v73.182h15v-45.02c4.363 3.282 9.461 5.637 15 6.766v68.255h15v-68.255c5.539-1.129 10.637-3.483 15-6.766v45.02h15v-73.181c1.885.403 3.811.619 5.75.619 4.643 0 9.345-1.18 13.646-3.664 7.208-4.162 11.802-11.13 13.216-18.735 2.107.506 4.27.766 6.441.766 5.578 0 11.207-1.695 16.055-5.216 5.908-4.29 9.589-10.519 10.819-17.188 2.106.508 4.271.78 6.451.78 4.643 0 9.345-1.18 13.646-3.663 10.269-5.929 15.244-17.551 13.252-28.601 6.274-1.021 11.84-4.324 15.747-9.379 8.429-10.907 6.414-26.639-4.493-35.068-10.904-8.429-26.639-6.415-35.069 4.492-4.008 5.186-5.65 11.463-5.102 17.528-4.008.283-8.014 1.453-11.722 3.593-7.205 4.16-11.798 11.124-13.214 18.726-.697-.167-1.401-.314-2.116-.428-7.225-1.147-14.464.59-20.382 4.887-5.73 4.16-9.552 10.242-10.831 17.18-6.588-1.584-13.768-.756-20.086 2.891-5.94 3.429-10.294 8.836-12.375 15.322-5.14-2.653-10.963-4.161-17.135-4.161s-11.995 1.508-17.135 4.161c-2.081-6.486-6.435-11.892-12.375-15.322-6.317-3.647-13.497-4.475-20.086-2.89-1.278-6.938-5.1-13.021-10.831-17.181h.001c-5.921-4.298-13.163-6.036-20.383-4.887-.715.113-1.419.261-2.116.428-1.416-7.602-6.009-14.566-13.214-18.726-3.708-2.141-7.713-3.311-11.722-3.594.548-6.064-1.094-12.341-5.103-17.527-8.43-10.906-24.162-12.92-35.068-4.492-10.907 8.43-12.922 24.161-4.493 35.069 3.911 5.054 9.478 8.357 15.751 9.378zm261.608-30.782c1.969-2.546 4.931-3.881 7.925-3.881 2.136 0 4.287.68 6.104 2.084 4.362 3.372 5.168 9.665 1.796 14.028-1.633 2.113-3.992 3.464-6.642 3.804-2.646.339-5.272-.373-7.386-2.006-4.362-3.373-5.168-9.666-1.797-14.029zm-21.191 24.938c1.945-1.123 4.072-1.657 6.172-1.657 4.284 0 8.457 2.222 10.749 6.191 3.415 5.915 1.381 13.506-4.534 16.921-5.488 3.169-12.411 1.64-16.111-3.319-.279-.458-.573-.911-.883-1.358-3.303-5.894-1.262-13.39 4.607-16.778zm-39.355 30.414c.519-3.268 2.278-6.138 4.955-8.082h.001c2.138-1.553 4.657-2.366 7.251-2.366.652 0 1.311.051 1.968.156 3.227.512 6.063 2.239 8.005 4.86.275.451.558.895.855 1.325 3.027 5.399 1.605 12.348-3.523 16.072-5.48 3.981-13.156 2.796-17.197-2.616-.284-.468-.581-.925-.889-1.371-1.356-2.417-1.867-5.198-1.426-7.978zm-27.274 12.842c1.946-1.124 4.072-1.657 6.172-1.657 3.854 0 7.604 1.811 9.99 5.061.265.431.543.856.833 1.275 3.3 5.894 1.259 13.388-4.608 16.775-5.918 3.416-13.506 1.38-16.921-4.534s-1.381-13.505 4.534-16.92zm-14.51 35.671c0 12.406-10.094 22.5-22.5 22.5s-22.5-10.093-22.5-22.5 10.094-22.5 22.5-22.5 22.5 10.093 22.5 22.5zm-59.51-35.671c5.915 3.415 7.949 11.005 4.534 16.92-3.415 5.916-11.006 7.95-16.921 4.535-5.867-3.388-7.908-10.881-4.608-16.775.312-.451.611-.908.894-1.372 3.702-4.95 10.618-6.473 16.101-3.308zm-41.449-23.134c.658-.104 1.315-.156 1.968-.156 2.593 0 5.113.813 7.251 2.366h.001c2.677 1.944 4.437 4.814 4.955 8.082.441 2.781-.07 5.562-1.427 7.981-.307.444-.603.901-.887 1.368-4.041 5.411-11.715 6.596-17.197 2.616-5.129-3.725-6.551-10.675-3.522-16.074.296-.428.578-.871.852-1.321 1.942-2.623 4.778-4.35 8.006-4.862zm-20.574-3.342c-.309.446-.603.898-.881 1.355-3.7 4.96-10.624 6.489-16.112 3.32-5.915-3.415-7.949-11.006-4.534-16.921 3.415-5.916 11.006-7.95 16.921-4.535 5.869 3.389 7.911 10.887 4.606 16.781zm-39.826-43.515c1.817-1.404 3.969-2.084 6.104-2.084 2.993 0 5.956 1.335 7.924 3.881 3.372 4.363 2.566 10.656-1.796 14.028-2.114 1.634-4.739 2.347-7.387 2.007-2.649-.339-5.009-1.69-6.642-3.803-3.371-4.364-2.566-10.657 1.797-14.029z" fill="#0b80c4" data-original="#000000" style="" class=""/><path d="m248.5 208.826h15v15h-15z" fill="#0b80c4" data-original="#000000" style="" class=""/><path d="m353.392 253.348h53.448v15h-53.448z" transform="matrix(.692 -.722 .722 .692 -71.211 354.838)" fill="#0b80c4" data-original="#000000" style="" class=""/><path d="m229.446 461.37h15v15h-15z" fill="#0b80c4" data-original="#000000" style="" class=""/><path d="m406.672 217.807h15v15h-15z" transform="matrix(.692 -.722 .722 .692 -35.058 368.463)" fill="#0b80c4" data-original="#000000" style="" class=""/><path d="m326.372 86.691h15v15h-15z" fill="#0b80c4" data-original="#000000" style="" class=""/></g></g></svg>
