<?xml version="1.0" ?><!DOCTYPE svg  PUBLIC '-//W3C//DTD SVG 1.1//EN'  'http://www.w3.org/Graphics/SVG/1.1/DTD/svg11.dtd'><svg height="6.82666in" style="shape-rendering:geometricPrecision; text-rendering:geometricPrecision; image-rendering:optimizeQuality; fill-rule:evenodd; clip-rule:evenodd" viewBox="0 0 6.82666 6.82666" width="6.82666in" xml:space="preserve" xmlns="http://www.w3.org/2000/svg" xmlns:xlink="http://www.w3.org/1999/xlink"><defs><style type="text/css">
   <![CDATA[
    .fil0 {fill:#298F39}
    .fil1 {fill:#2CB742}
    .fil2 {fill:#FFFFFE}
   ]]>
  </style></defs><g id="Layer_x0020_1"><circle class="fil0" cx="3.41333" cy="3.41333" r="3.41333"/><circle class="fil1" cx="3.41333" cy="3.41333" r="3.21667"/><g id="_234549312"><path class="fil0" d="M2.52058 5.25832l-0.973909 0.230713c-0.111764,0.0264764 -0.213366,-0.0722677 -0.190193,-0.184744l0.205004 -0.99513c-0.139189,-0.282024 -0.211051,-0.590843 -0.212012,-0.905642 -0.00335039,-1.10005 0.863626,-2.01543 1.96307,-2.06777 0.294122,-0.0140039 0.586524,0.0334449 0.860378,0.141898 0.262091,0.103799 0.500425,0.260858 0.699736,0.46015 0.195433,0.195421 0.350311,0.428425 0.454142,0.684594 0.108118,0.26676 0.158331,0.553083 0.149358,0.840701 -0.0350236,1.12306 -0.971961,2.01488 -2.09492,1.9977 -0.298752,-0.0045748 -0.591606,-0.0731969 -0.860657,-0.202465zm-0.448685 -0.500587l0.520358 -0.12326 0.165346 0.0824134c0.205362,0.102354 0.426252,0.153622 0.655728,0.153622 0.393642,0 0.763449,-0.153173 1.0418,-0.431524 0.275787,-0.275787 0.431547,-0.651894 0.431516,-1.04191 -3.14961e-005,-0.393646 -0.153146,-0.763472 -0.43152,-1.04181 -0.278343,-0.278311 -0.648173,-0.431508 -1.04179,-0.431508 -0.389961,0 -0.766122,0.155732 -1.04185,0.4315 -0.278378,0.278409 -0.43152,0.648173 -0.43152,1.04188 0,0.234614 0.0534291,0.459846 0.160079,0.668787l0.0814606 0.159594 -0.109598 0.532217z" id="_234549816"/><path class="fil0" d="M4.39818 3.75046c0.143386,0.0411732 0.206528,0.208622 0.12674,0.334496 -0.089937,0.141886 -0.222559,0.293335 -0.39235,0.334445 -0.460236,0.111437 -0.924689,-0.189728 -1.24483,-0.488547 -0.293567,-0.274016 -0.593059,-0.655362 -0.54976,-1.08274 0.0176142,-0.173827 0.149614,-0.325736 0.277862,-0.434236 0.113677,-0.0961732 0.288366,-0.0563543 0.348614,0.0799528l0.16163 0.365697c0.0330906,0.0748701 0.0225512,0.162024 -0.0275354,0.226783l-0.0820472 0.106094c-0.0147165,0.0190315 -0.017,0.0453937 -0.00495276,0.0663504 0.0891614,0.155134 0.456961,0.482358 0.622429,0.549307 0.0224606,0.00909055 0.0482047,0.00319291 0.0650866,-0.0140118l0.0939252 -0.0957165c0.0571142,-0.0582008 0.142535,-0.0807165 0.220913,-0.0582126l0.384276 0.110339z" id="_234549384"/></g><path class="fil2" d="M3.31635 1.41565c-1.05644,0.0502402 -1.89005,0.930051 -1.88688,1.98762 0.000996063,0.322067 0.0787402,0.626165 0.215972,0.894819l-0.21061 1.02234c-0.0114409,0.0553386 0.0384685,0.103791 0.0934016,0.0907598l1.00178 -0.237315c0.25735,0.128177 0.5465,0.202217 0.852457,0.206921 1.0797,0.0164488 1.98002,-0.840815 2.01374,-1.9202 0.0360315,-1.157 -0.918886,-2.10028 -2.07985,-2.04494zm1.19535 3.0799c-0.293386,0.293386 -0.683484,0.454953 -1.09836,0.454953 -0.242949,0 -0.475575,-0.0545433 -0.691413,-0.162024l-0.139417 -0.0694882 -0.614264 0.145504 0.129244 -0.627618 -0.0686969 -0.134587c-0.112047,-0.219413 -0.168823,-0.456677 -0.168823,-0.705157 0,-0.414965 0.161567,-0.804992 0.454945,-1.09844 0.290728,-0.290724 0.687173,-0.454933 1.09843,-0.454933 0.414878,0 0.804976,0.161622 1.09835,0.454933 0.293386,0.293382 0.454953,0.68348 0.454953,1.09837 6.69291e-005,0.411252 -0.164138,0.807681 -0.454945,1.09849z"/><path class="fil2" d="M4.3761 3.82735l-0.384276 -0.110339c-0.0505,-0.0144685 -0.104909,-0.000133858 -0.141736,0.0373504l-0.0939252 0.0957165c-0.0396654,0.0403976 -0.0997598,0.0533661 -0.152189,0.0321417 -0.181787,-0.0735157 -0.564205,-0.413571 -0.661783,-0.583602 -0.0282283,-0.0490394 -0.0235433,-0.110319 0.0110315,-0.15515l0.0820472 -0.106094c0.032122,-0.0415787 0.0388701,-0.0974449 0.0176457,-0.145508l-0.16163 -0.365697c-0.0387362,-0.0875236 -0.150654,-0.113043 -0.223776,-0.0512205 -0.107209,0.0907559 -0.234476,0.228512 -0.249941,0.381228 -0.0272953,0.269248 0.088185,0.60865 0.524756,1.0162 0.504453,0.470799 0.908374,0.533016 1.17142,0.46928 0.149193,-0.0360984 0.268386,-0.180929 0.34361,-0.299524 0.0512953,-0.0809803 0.0107795,-0.188343 -0.081252,-0.21478z"/></g></svg>