<svg width="30" height="30" fill="none" xmlns="http://www.w3.org/2000/svg"><g clip-path="url(#clip0)" fill="#1771B8"><path d="M29.978 23.353l-2-6.5a.5.5 0 00-.478-.353h-9.547l5.156-5.34c.256.4.391.865.391 1.34a.5.5 0 001 0A2.502 2.502 0 0127 10a.5.5 0 100-1 2.503 2.503 0 01-2.5-2.5.5.5 0 00-1 0c0 .468-.131.927-.38 1.323l-3.913-1.778A.497.497 0 0019 6V6h-6a.5.5 0 00-.354.146l-4.73 4.732A2.485 2.485 0 017.5 9.5a.5.5 0 00-1 0A2.503 2.503 0 014 12a.5.5 0 000 1c.49 0 .97.144 1.378.415l-3.232 3.231a.499.499 0 00-.124.207l-2 6.5A.5.5 0 00.5 24h29a.5.5 0 00.478-.647zM20.823 17.5L19.131 23h-7.453l5.31-5.5h3.835zM24 8.301c.296.491.708.903 1.199 1.199A3.529 3.529 0 0024 10.699 3.529 3.529 0 0022.801 9.5 3.529 3.529 0 0024 8.301zm-1.622.283A2.485 2.485 0 0121 9a.5.5 0 000 1c.505 0 .999.153 1.414.44L10.73 22.543l-1.663-5.402L19.11 7.099l3.27 1.485zM13.208 7h4.585l-9.5 9.5H3.707l2.378-2.378c.271.409.415.888.415 1.378a.5.5 0 101 0A2.503 2.503 0 0110 13a.5.5 0 000-1c-.49 0-.97-.144-1.378-.415L13.207 7zM7 11.301c.296.491.708.903 1.199 1.199A3.529 3.529 0 007 13.699 3.529 3.529 0 005.801 12.5 3.529 3.529 0 007 11.301zM1.177 23l1.692-5.5h5.262L9.823 23H1.177zm19 0l1.692-5.5h5.262l1.692 5.5h-8.646z"/><path d="M15 8h-2v1h2V8zM13.5 9.5h-2v1h2v-1z"/></g><defs><clipPath id="clip0"><path fill="#1771B8" d="M0 0h30v30H0z"/></clipPath></defs></svg>