<svg width="64" height="64" viewBox="0 0 64 64" fill="none" xmlns="http://www.w3.org/2000/svg">
<path d="M60.9175 10.5H3.08252C1.38281 10.5 0 11.8828 0 13.5825V46.9458C0 48.5635 1.25293 49.8931 2.83936 50.0176V50.3735C2.83936 52.0732 4.22217 53.4556 5.92188 53.4556H58.2256C59.9248 53.4556 61.3076 52.0732 61.3076 50.3735V50.0024C62.8237 49.8101 64 48.5132 64 46.9458V13.5825C64 11.8828 62.6172 10.5 60.9175 10.5ZM62.0649 46.9458C62.0649 47.5786 61.5503 48.0928 60.9175 48.0928H5.63135C5.09668 48.0928 4.66357 48.5264 4.66357 49.0605C4.66357 49.5952 5.09668 50.0283 5.63135 50.0283H59.3726V50.3735C59.3726 51.0063 58.8579 51.5205 58.2256 51.5205H5.92188C5.28906 51.5205 4.77441 51.0063 4.77441 50.3735V50.0283H8.20166C8.73633 50.0283 9.16943 49.5952 9.16943 49.0605C9.16943 48.5264 8.73633 48.0928 8.20166 48.0928H3.08252C2.44971 48.0928 1.93506 47.5786 1.93506 46.9458V13.5825C1.93506 12.9497 2.44971 12.4351 3.08252 12.4351H60.9175C61.5503 12.4351 62.0649 12.9497 62.0649 13.5825V46.9458Z" fill="#1771B8"/>
<path d="M22.2856 25.5796H7.26514C5.93604 25.5796 4.85449 26.6611 4.85449 27.9902V43.0107C4.85449 44.3398 5.93604 45.4214 7.26514 45.4214H22.2856C23.6147 45.4214 24.6963 44.3398 24.6963 43.0107V27.9902C24.6963 26.6606 23.6147 25.5796 22.2856 25.5796ZM11.0845 43.4863V41.2285C11.0845 40.7324 11.4883 40.3286 11.9844 40.3286H17.2783C17.7744 40.3286 18.1782 40.7319 18.1782 41.2285V43.4863H11.0845ZM22.7612 43.0107C22.7612 43.2729 22.5479 43.4863 22.2856 43.4863H20.1133V41.2285C20.1133 39.665 18.8418 38.3936 17.2783 38.3936H11.9844C10.4214 38.3936 9.14941 39.665 9.14941 41.2285V43.4863H7.26514C7.00293 43.4863 6.78955 43.2729 6.78955 43.0107V27.9902C6.78955 27.728 7.00293 27.5146 7.26514 27.5146H22.2856C22.5479 27.5146 22.7612 27.728 22.7612 27.9902V43.0107Z" fill="#1771B8"/>
<path d="M14.6313 29.1938C12.626 29.1938 10.9941 30.8252 10.9941 32.8311C10.9941 34.8364 12.626 36.4683 14.6313 36.4683C16.6372 36.4683 18.2686 34.8364 18.2686 32.8311C18.2686 30.8252 16.6367 29.1938 14.6313 29.1938ZM14.6313 34.5327C13.6929 34.5327 12.9297 33.769 12.9297 32.8306C12.9297 31.8921 13.6929 31.1289 14.6313 31.1289C15.5698 31.1289 16.3335 31.8921 16.3335 32.8306C16.3335 33.769 15.5698 34.5327 14.6313 34.5327Z" fill="#1771B8"/>
<path d="M58.1421 26.3418H28.6074C28.0728 26.3418 27.6396 26.7749 27.6396 27.3091C27.6396 27.8438 28.0728 28.2769 28.6074 28.2769H58.1426C58.6768 28.2769 59.1099 27.8438 59.1099 27.3091C59.1099 26.7749 58.6768 26.3418 58.1421 26.3418Z" fill="#1771B8"/>
<path d="M28.6074 32.6421H47.7363C48.2705 32.6421 48.7041 32.209 48.7041 31.6743C48.7041 31.1396 48.2705 30.7065 47.7363 30.7065H28.6074C28.0728 30.7065 27.6396 31.1396 27.6396 31.6743C27.6396 32.209 28.0728 32.6421 28.6074 32.6421Z" fill="#1771B8"/>
<path d="M36.2778 35.0034H28.6074C28.0728 35.0034 27.6396 35.4365 27.6396 35.9707C27.6396 36.5054 28.0728 36.9385 28.6074 36.9385H36.2778C36.812 36.9385 37.2456 36.5054 37.2456 35.9707C37.2456 35.4365 36.812 35.0034 36.2778 35.0034Z" fill="#1771B8"/>
<path d="M56.4512 15.3086H46.1636C45.6289 15.3086 45.1958 15.7417 45.1958 16.2764C45.1958 16.811 45.6289 17.2441 46.1636 17.2441H56.4512C56.8506 17.2441 57.1753 17.5688 57.1753 17.9678V18.1797C57.1753 18.5786 56.8506 18.9033 56.4512 18.9033H6.87207C6.47314 18.9033 6.14844 18.5786 6.14844 18.1797V17.9678C6.14844 17.5688 6.47314 17.2441 6.87207 17.2441H48.4111C48.9458 17.2441 49.3789 16.811 49.3789 16.2764C49.3789 15.7417 48.9458 15.3086 48.4111 15.3086H6.87207C5.40576 15.3086 4.21289 16.5015 4.21289 17.9678V18.1797C4.21289 19.6455 5.40576 20.8389 6.87207 20.8389H56.4512C57.9175 20.8389 59.1104 19.6455 59.1104 18.1797V17.9678C59.1104 16.5015 57.9175 15.3086 56.4512 15.3086Z" fill="#1771B8"/>
<path d="M57.6538 39.728C56.71 40.4409 55.4536 41.4492 54.2012 40.9985C53.5801 40.7749 53.019 40.6016 52.3896 40.9463C52.2349 41.0317 52.085 41.1333 51.9385 41.2436C51.8359 40.5439 51.1714 40.085 50.4897 40.4521C50.0176 40.7065 49.5317 40.9145 49.0254 41.0747C49.3545 40.1694 49.4702 39.0786 49.0928 38.1768C48.6279 37.0664 47.3823 36.6763 46.3188 37.2056C45.3818 37.6709 44.5923 38.813 44.2192 39.7656C43.8266 40.769 44.0303 41.8501 44.8491 42.5791C44.938 42.6582 45.0307 42.7285 45.1255 42.7949C44.458 43.2187 43.7246 43.5513 43.0097 43.8642C42.5273 44.0752 42.4258 44.772 42.6626 45.188C42.9458 45.685 43.5107 45.7436 43.9868 45.5351C45.2485 44.9829 46.5014 44.3125 47.4853 43.376C48.3906 43.3291 49.331 43.0644 50.1709 42.729C50.189 42.8901 50.2065 43.0517 50.2246 43.2129C50.3183 44.0532 51.21 44.48 51.8765 43.897C52.167 43.6431 52.4575 43.3892 52.748 43.1352C52.8769 43.0225 53.0049 42.9077 53.1352 42.7964C53.2954 42.6597 53.0928 42.645 53.3413 42.7217C53.9507 42.9111 54.4785 43.104 55.1343 43.04C56.4556 42.9111 57.5957 42.1802 58.6309 41.3989C59.0508 41.0815 59.2578 40.5674 58.9775 40.0752C58.7427 39.6621 58.0703 39.4141 57.6538 39.728ZM46.083 40.3159C46.2949 39.8765 46.7422 39.1006 47.2256 38.916C47.2529 38.9053 47.2866 38.8994 47.3193 38.8999C47.271 38.9141 47.3515 39.0391 47.3662 39.1284C47.414 39.4238 47.3872 39.7344 47.3242 40.0249C47.2178 40.5146 46.9917 40.9809 46.6948 41.3877C46.6245 41.3726 46.5561 41.3545 46.4892 41.3306C45.977 41.1484 45.8452 40.8096 46.083 40.3159Z" fill="#1771B8"/>
</svg>
